<mxfile host="localhost" modified="2020-05-17T12:08:25.780Z" agent="5.0 (X11; Linux x86_64) AppleWebKit/537.36 (KHTML, like Gecko) Code/1.45.1 Chrome/78.0.3904.130 Electron/7.2.4 Safari/537.36" etag="LiK3MQMgnno4LcAPr_WE" version="13.0.9">
    <diagram id="BDNPDYGALKYV1IH1VU3y" name="Page-1">
        <mxGraphModel dx="1414" dy="780" grid="0" gridSize="10" guides="1" tooltips="1" connect="1" arrows="1" fold="1" page="0" pageScale="1" pageWidth="850" pageHeight="1100" math="0" shadow="0">
            <root>
                <mxCell id="0"/>
                <mxCell id="1" parent="0"/>
                <mxCell id="25" value="Avocado Supply Chain" style="swimlane;html=1;childLayout=stackLayout;resizeParent=1;resizeParentMax=0;startSize=20;" parent="1" vertex="1">
                    <mxGeometry x="-10" y="39" width="506" height="998" as="geometry"/>
                </mxCell>
                <mxCell id="26" value="Farmer" style="swimlane;html=1;startSize=20;" parent="25" vertex="1">
                    <mxGeometry y="20" width="129" height="978" as="geometry"/>
                </mxCell>
                <mxCell id="32" value="Harvest" style="rounded=1;whiteSpace=wrap;html=1;arcSize=40;fontColor=#000000;fillColor=#ffffc0;strokeColor=#ff0000;" parent="26" vertex="1">
                    <mxGeometry x="2" y="102" width="120" height="40" as="geometry"/>
                </mxCell>
                <mxCell id="30" value="" style="ellipse;html=1;shape=startState;fillColor=#000000;strokeColor=#ff0000;" parent="26" vertex="1">
                    <mxGeometry x="45" y="39" width="30" height="30" as="geometry"/>
                </mxCell>
                <mxCell id="31" value="" style="edgeStyle=orthogonalEdgeStyle;html=1;verticalAlign=bottom;endArrow=open;endSize=8;strokeColor=#ff0000;" parent="26" source="30" edge="1">
                    <mxGeometry relative="1" as="geometry">
                        <mxPoint x="60" y="100" as="targetPoint"/>
                    </mxGeometry>
                </mxCell>
                <mxCell id="33" value="" style="edgeStyle=orthogonalEdgeStyle;html=1;verticalAlign=bottom;endArrow=open;endSize=8;strokeColor=#ff0000;" parent="26" source="32" edge="1">
                    <mxGeometry relative="1" as="geometry">
                        <mxPoint x="62" y="184" as="targetPoint"/>
                    </mxGeometry>
                </mxCell>
                <mxCell id="47" value="Process" style="rounded=1;whiteSpace=wrap;html=1;arcSize=40;fontColor=#000000;fillColor=#ffffc0;strokeColor=#ff0000;" parent="26" vertex="1">
                    <mxGeometry x="2" y="186" width="120" height="40" as="geometry"/>
                </mxCell>
                <mxCell id="48" value="" style="edgeStyle=orthogonalEdgeStyle;html=1;verticalAlign=bottom;endArrow=open;endSize=8;strokeColor=#ff0000;" parent="26" source="47" edge="1">
                    <mxGeometry relative="1" as="geometry">
                        <mxPoint x="62" y="267" as="targetPoint"/>
                    </mxGeometry>
                </mxCell>
                <mxCell id="49" value="Pack" style="rounded=1;whiteSpace=wrap;html=1;arcSize=40;fontColor=#000000;fillColor=#ffffc0;strokeColor=#ff0000;" parent="26" vertex="1">
                    <mxGeometry y="270" width="120" height="40" as="geometry"/>
                </mxCell>
                <mxCell id="70" value="" style="edgeStyle=orthogonalEdgeStyle;html=1;verticalAlign=bottom;endArrow=open;endSize=8;strokeColor=#ff0000;exitX=0.5;exitY=1;exitDx=0;exitDy=0;entryX=0.425;entryY=0.025;entryDx=0;entryDy=0;entryPerimeter=0;" parent="26" source="49" edge="1">
                    <mxGeometry relative="1" as="geometry">
                        <mxPoint x="60" y="362" as="targetPoint"/>
                        <mxPoint x="274" y="443" as="sourcePoint"/>
                    </mxGeometry>
                </mxCell>
                <mxCell id="83" value="Sell" style="rounded=1;whiteSpace=wrap;html=1;arcSize=40;fontColor=#000000;fillColor=#ffffc0;strokeColor=#ff0000;" parent="26" vertex="1">
                    <mxGeometry x="2" y="365" width="120" height="40" as="geometry"/>
                </mxCell>
                <mxCell id="71" value="Distributor" style="swimlane;html=1;startSize=20;" parent="25" vertex="1">
                    <mxGeometry x="129" y="20" width="134" height="978" as="geometry"/>
                </mxCell>
                <mxCell id="72" value="" style="edgeStyle=orthogonalEdgeStyle;html=1;verticalAlign=bottom;endArrow=open;endSize=8;strokeColor=#ff0000;" parent="71" edge="1">
                    <mxGeometry relative="1" as="geometry">
                        <mxPoint x="67" y="427" as="targetPoint"/>
                    </mxGeometry>
                </mxCell>
                <mxCell id="76" value="Buy" style="rounded=1;whiteSpace=wrap;html=1;arcSize=40;fontColor=#000000;fillColor=#ffffc0;strokeColor=#ff0000;" parent="71" vertex="1">
                    <mxGeometry x="7" y="415" width="120" height="40" as="geometry"/>
                </mxCell>
                <mxCell id="77" value="" style="edgeStyle=orthogonalEdgeStyle;html=1;verticalAlign=bottom;endArrow=open;endSize=8;strokeColor=#ff0000;" parent="71" source="76" edge="1">
                    <mxGeometry relative="1" as="geometry">
                        <mxPoint x="67" y="515" as="targetPoint"/>
                    </mxGeometry>
                </mxCell>
                <mxCell id="78" value="Ship" style="rounded=1;whiteSpace=wrap;html=1;arcSize=40;fontColor=#000000;fillColor=#ffffc0;strokeColor=#ff0000;" parent="71" vertex="1">
                    <mxGeometry x="7" y="518" width="120" height="40" as="geometry"/>
                </mxCell>
                <mxCell id="79" value="" style="edgeStyle=orthogonalEdgeStyle;html=1;verticalAlign=bottom;endArrow=open;endSize=8;strokeColor=#ff0000;" parent="71" source="78" edge="1">
                    <mxGeometry relative="1" as="geometry">
                        <mxPoint x="197" y="629" as="targetPoint"/>
                    </mxGeometry>
                </mxCell>
                <mxCell id="28" value="Retailer" style="swimlane;html=1;startSize=20;" parent="25" vertex="1">
                    <mxGeometry x="263" y="20" width="123" height="978" as="geometry"/>
                </mxCell>
                <mxCell id="81" value="Receive" style="rounded=1;whiteSpace=wrap;html=1;arcSize=40;fontColor=#000000;fillColor=#ffffc0;strokeColor=#ff0000;" parent="28" vertex="1">
                    <mxGeometry x="3" y="633" width="120" height="40" as="geometry"/>
                </mxCell>
                <mxCell id="82" value="" style="edgeStyle=orthogonalEdgeStyle;html=1;verticalAlign=bottom;endArrow=open;endSize=8;strokeColor=#ff0000;" parent="28" source="81" edge="1">
                    <mxGeometry relative="1" as="geometry">
                        <mxPoint x="183" y="727" as="targetPoint"/>
                    </mxGeometry>
                </mxCell>
                <mxCell id="29" value="Consumer" style="swimlane;html=1;startSize=20;" parent="25" vertex="1">
                    <mxGeometry x="386" y="20" width="120" height="978" as="geometry"/>
                </mxCell>
                <mxCell id="65" value="" style="edgeStyle=orthogonalEdgeStyle;html=1;verticalAlign=bottom;endArrow=open;endSize=8;strokeColor=#ff0000;" parent="29" source="64" edge="1">
                    <mxGeometry relative="1" as="geometry">
                        <mxPoint x="60" y="807" as="targetPoint"/>
                    </mxGeometry>
                </mxCell>
                <mxCell id="64" value="Purchase" style="rounded=1;whiteSpace=wrap;html=1;arcSize=40;fontColor=#000000;fillColor=#ffffc0;strokeColor=#ff0000;" parent="29" vertex="1">
                    <mxGeometry y="729" width="120" height="40" as="geometry"/>
                </mxCell>
                <mxCell id="85" value="Track (Fetch)" style="rounded=1;whiteSpace=wrap;html=1;arcSize=40;fontColor=#000000;fillColor=#ffffc0;strokeColor=#ff0000;" vertex="1" parent="29">
                    <mxGeometry y="805" width="120" height="40" as="geometry"/>
                </mxCell>
                <mxCell id="67" value="" style="ellipse;html=1;shape=endState;fillColor=#000000;strokeColor=#ff0000;" parent="29" vertex="1">
                    <mxGeometry x="45" y="890" width="30" height="30" as="geometry"/>
                </mxCell>
                <mxCell id="84" value="" style="edgeStyle=orthogonalEdgeStyle;html=1;verticalAlign=bottom;endArrow=open;endSize=8;strokeColor=#ff0000;entryX=0.5;entryY=0;entryDx=0;entryDy=0;" parent="25" source="83" target="76" edge="1">
                    <mxGeometry relative="1" as="geometry">
                        <mxPoint x="62" y="485" as="targetPoint"/>
                    </mxGeometry>
                </mxCell>
                <mxCell id="86" value="" style="edgeStyle=orthogonalEdgeStyle;html=1;verticalAlign=bottom;endArrow=open;endSize=8;strokeColor=#ff0000;" edge="1" parent="1">
                    <mxGeometry relative="1" as="geometry">
                        <mxPoint x="436" y="946" as="targetPoint"/>
                        <mxPoint x="436" y="908" as="sourcePoint"/>
                    </mxGeometry>
                </mxCell>
            </root>
        </mxGraphModel>
    </diagram>
</mxfile>